<?xml version="1.0" standalone="no"?>
<!DOCTYPE svg PUBLIC "-//W3C//DTD SVG 20010904//EN"
 "http://www.w3.org/TR/2001/REC-SVG-20010904/DTD/svg10.dtd">
<svg version="1.0" xmlns="http://www.w3.org/2000/svg"
 width="270.000000pt" height="270.000000pt" viewBox="0 0 270.000000 270.000000"
 preserveAspectRatio="xMidYMid meet">

<g transform="translate(0.000000,270.000000) scale(0.100000,-0.100000)"
fill="#000000" stroke="none">
<path d="M2090 2430 l0 -270 -355 0 -355 0 -51 -27 c-137 -74 -222 -294 -236
-608 -15 -361 99 -684 263 -741 26 -9 88 -14 186 -14 l147 0 11 -40 c13 -47 5
-99 -22 -153 l-18 -37 -585 0 c-535 0 -587 1 -622 17 -21 10 -48 28 -60 40
-32 31 -82 115 -89 149 l-6 29 335 -3 335 -3 6 23 c15 55 28 324 22 453 -9
202 -35 366 -85 535 -22 76 -96 248 -117 271 -8 8 -14 19 -14 23 0 16 -94 115
-140 147 -49 34 -114 47 -170 34 -54 -12 -170 -88 -170 -111 0 -3 -8 -14 -18
-23 -23 -20 -95 -142 -129 -219 -173 -386 -200 -994 -63 -1433 35 -112 103
-262 134 -295 6 -7 20 -24 31 -40 11 -15 28 -35 39 -43 10 -9 23 -21 30 -27 6
-5 19 -13 29 -17 9 -3 17 -11 17 -17 0 -5 11 -10 24 -10 14 0 28 -4 31 -10 4
-6 225 -10 629 -10 542 0 627 2 654 15 118 59 208 269 234 546 22 240 -24 501
-114 644 -18 27 -74 85 -83 85 -4 0 -13 8 -20 17 -10 14 -38 17 -179 21 -126
4 -171 8 -181 19 -39 39 -43 165 -7 226 l18 32 357 3 357 2 0 -385 c0 -399 7
-513 42 -675 33 -158 101 -331 156 -403 37 -48 126 -127 143 -127 10 0 21 -4
24 -10 4 -6 57 -10 126 -10 l119 0 0 270 0 270 -101 0 c-97 0 -103 1 -139 30
-43 34 -69 79 -101 176 -22 66 -23 85 -27 467 l-3 397 120 0 121 0 0 275 0
275 -120 0 -120 0 0 270 0 270 -120 0 -120 0 0 -270z m-1492 -767 c22 -21 54
-65 71 -98 35 -67 75 -211 63 -229 -5 -8 -76 -11 -235 -11 l-229 0 6 29 c8 37
82 222 96 238 5 7 23 28 38 46 36 42 68 60 114 61 29 1 44 -6 76 -36z"/>
</g>
</svg>
